<svg width="84" height="85" xmlns="http://www.w3.org/2000/svg" xmlns:xlink="http://www.w3.org/1999/xlink" xml:space="preserve" overflow="hidden"><defs><clipPath id="clip0"><rect x="999" y="-4" width="84" height="85"/></clipPath></defs><g clip-path="url(#clip0)" transform="translate(-999 4)"><path d="M38.4125 69.0375 32.9875 69.0375 14.6125 50.6625 31.325 33.95 52.325 54.95 38.4125 69.0375ZM75.25 35.875 50.575 11.1125C49.175 9.7125 46.9875 9.7125 45.5875 11.1125L8.4875 48.2125C7.0875 49.6125 7.0875 51.8 8.4875 53.2L29.575 74.2875 66.675 74.2875 66.675 69.0375 47.075 69.0375 75.25 40.8625C76.65 39.4625 76.65 37.1875 75.25 35.875Z" transform="matrix(1 0 0 1.0119 999 -4)"/></g></svg>